<svg width="24" height="24" viewBox="0 0 24 24" fill="none" xmlns="http://www.w3.org/2000/svg">
<path d="M2.4 24C1.74 24 1.175 23.765 0.705 23.295C0.235 22.825 0 22.26 0 21.6V4.8C0 4.14 0.235 3.575 0.705 3.105C1.175 2.635 1.74 2.4 2.4 2.4H3.6V0H6V2.4H15.6V0H18V2.4H19.2C19.86 2.4 20.425 2.635 20.895 3.105C21.365 3.575 21.6 4.14 21.6 4.8V10.8H19.2V9.6H2.4V21.6H10.8V24H2.4ZM13.2 24V20.31L19.83 13.71C20.01 13.53 20.21 13.4 20.43 13.32C20.65 13.24 20.87 13.2 21.09 13.2C21.33 13.2 21.56 13.245 21.78 13.335C22 13.425 22.2 13.56 22.38 13.74L23.49 14.85C23.65 15.03 23.775 15.23 23.865 15.45C23.955 15.67 24 15.89 24 16.11C24 16.33 23.96 16.555 23.88 16.785C23.8 17.015 23.67 17.22 23.49 17.4L16.89 24H13.2ZM21.09 17.28L22.2 16.11L21.09 15L19.95 16.14L21.09 17.28Z" fill="#6EDC63"/>
</svg>
