<svg width="16" height="15" viewBox="0 0 16 15" fill="none" xmlns="http://www.w3.org/2000/svg">
<path d="M10.8537 1.5C10.8537 0.6675 11.5142 0 12.338 0C13.1617 0 13.8222 0.6675 13.8222 1.5C13.8222 2.3325 13.1617 3 12.338 3C11.5142 3 10.8537 2.3325 10.8537 1.5ZM13.8222 15V10.5H15.6775L13.7925 4.7775C13.5847 4.1625 13.0207 3.75 12.3825 3.75H12.2934C11.6552 3.75 11.0838 4.1625 10.8834 4.7775L10.2451 6.7125C11.0466 7.1625 11.5958 8.01 11.5958 9V15H13.8222ZM8.25624 7.125C8.87221 7.125 9.36943 6.6225 9.36943 6C9.36943 5.3775 8.87221 4.875 8.25624 4.875C7.64027 4.875 7.14304 5.3775 7.14304 6C7.14304 6.6225 7.64027 7.125 8.25624 7.125ZM3.06132 3C3.88509 3 4.54559 2.3325 4.54559 1.5C4.54559 0.6675 3.88509 0 3.06132 0C2.23756 0 1.57706 0.6675 1.57706 1.5C1.57706 2.3325 2.23756 3 3.06132 3ZM4.54559 15V9.75H5.65878V5.25C5.65878 4.425 4.99086 3.75 4.17452 3.75H1.94813C1.13178 3.75 0.463867 4.425 0.463867 5.25V9.75H1.57706V15H4.54559ZM9.36943 15V12H10.1116V9C10.1116 8.385 9.60692 7.875 8.99837 7.875H7.51411C6.90556 7.875 6.40091 8.385 6.40091 9V12H7.14304V15H9.36943Z" fill="#FFC134"/>
</svg>
