<svg width="58" height="27" viewBox="0 0 58 27" fill="none" xmlns="http://www.w3.org/2000/svg">
<g clip-path="url(#clip0_192_11987)">
<path d="M4.45508 15.9221L6.8341 17.5375L11.19 18.0675L11.6187 15.9221H4.45508Z" fill="#3CC42E"/>
<path d="M0.800781 11.573L4.33327 13.3155L12.0205 13.9108L12.4872 11.573H0.800781Z" fill="#3CC42E"/>
<path d="M33.7241 8.39669C33.69 8.3023 33.6368 8.22607 33.5534 8.16436C33.4813 8.09538 33.3788 8.05908 33.2498 8.05908C32.9918 8.05908 32.7528 8.12079 32.5327 8.24422C32.3126 8.36765 32.1153 8.53463 31.937 8.74518C31.7662 8.94484 31.6183 9.17717 31.4893 9.44217C31.3603 9.69628 31.2464 9.96129 31.1478 10.2335C31.0605 10.4986 30.9922 10.7563 30.9543 11.0104C30.9125 11.2645 30.8936 11.486 30.8936 11.6711C30.8936 11.7546 30.9087 11.8453 30.9429 11.9397C30.977 12.0341 31.0188 12.114 31.0757 12.1829C31.1326 12.2519 31.2009 12.3136 31.2806 12.3681C31.3678 12.4153 31.4627 12.4371 31.5614 12.4371C31.9256 12.4371 32.2481 12.3173 32.5327 12.0777C32.8173 11.8381 33.0525 11.544 33.2384 11.1955C33.4244 10.847 33.5647 10.4768 33.6634 10.0811C33.7696 9.68539 33.8228 9.32601 33.8228 8.99929C33.8228 8.90491 33.8152 8.80689 33.8 8.69799C33.7924 8.58908 33.7658 8.48744 33.7279 8.39669H33.7241Z" fill="#3CC42E"/>
<path d="M23.8318 0H17.5295L16.6644 4.36708H17.7913C18.0189 3.93873 18.4818 3.64468 19.0168 3.64468C19.7795 3.64468 20.4017 4.2364 20.4017 4.96969C20.4017 5.70298 19.7833 6.2947 19.0168 6.2947C18.4818 6.2947 18.0189 6.00066 17.7913 5.5723H16.4253L15.8524 8.46191H17.0058C17.2335 8.03355 17.6964 7.7395 18.2314 7.7395C18.9941 7.7395 19.6163 8.33122 19.6163 9.06451C19.6163 9.79781 18.9979 10.3895 18.2314 10.3895C17.6964 10.3895 17.2335 10.0955 17.0058 9.66712H15.6133L15.0404 12.5567H16.2204C16.4481 12.1284 16.911 11.8343 17.446 11.8343C18.2086 11.8343 18.8309 12.426 18.8309 13.1593C18.8309 13.8926 18.2124 14.4843 17.446 14.4843C16.911 14.4843 16.4481 14.1903 16.2204 13.7619H14.8052L14.2322 16.6516H15.435C15.6627 16.2232 16.1256 15.9291 16.6606 15.9291C17.4232 15.9291 18.0455 16.5209 18.0455 17.2542C18.0455 17.9874 17.427 18.5792 16.6606 18.5792C16.1256 18.5792 15.6627 18.2851 15.435 17.8568H13.9932L13.166 22.0351H17.7761C18.6032 19.2725 21.2858 17.1271 24.0594 17.1271C26.8331 17.1271 28.7226 19.2725 28.5253 22.0351H35.651C36.4782 19.2725 39.1608 17.1271 41.9344 17.1271C44.708 17.1271 46.5976 19.2725 46.4003 22.0351H50.3008L57.7604 0H23.8318ZM27.9069 10.9994C27.5502 11.1845 27.1784 11.2789 26.7913 11.2789H26.6585C26.594 11.5439 26.5333 11.8271 26.4764 12.1393C26.4195 12.4478 26.3702 12.7346 26.3322 12.9996C26.2753 13.3082 26.2222 13.6204 26.1729 13.9289L24.0708 14.3246C24.3137 13.2791 24.5451 12.2554 24.7614 11.2571C24.8487 10.8397 24.9435 10.3968 25.0422 9.93212C25.1408 9.46746 25.2319 9.01006 25.3229 8.55992C25.414 8.10978 25.4975 7.67779 25.5772 7.26032C25.6568 6.84285 25.7251 6.45806 25.7821 6.10956C26.0173 6.04059 26.2488 5.98251 26.4726 5.93531C26.7003 5.88086 26.9317 5.83367 27.1632 5.79737C27.406 5.75744 27.6337 5.73929 27.8424 5.73929C28.2066 5.73929 28.5102 5.79737 28.753 5.91353C29.0034 6.0297 29.2045 6.18943 29.3601 6.38908C29.5156 6.58148 29.6219 6.81018 29.6864 7.07518C29.7509 7.34019 29.785 7.61971 29.785 7.92464C29.785 8.35663 29.7016 8.77773 29.5308 9.18068C29.3677 9.58363 29.1476 9.94301 28.863 10.2625C28.586 10.571 28.2673 10.8215 27.9031 11.0066L27.9069 10.9994ZM33.9056 12.6257C33.5983 12.9887 33.2758 13.3045 32.9343 13.5659C32.5928 13.82 32.2513 14.0197 31.9023 14.1576C31.5532 14.2883 31.2231 14.3537 30.9082 14.3537C30.6426 14.3537 30.3997 14.3065 30.1796 14.2157C29.9596 14.1141 29.7699 13.9725 29.6105 13.7874C29.4473 13.595 29.3183 13.3481 29.2235 13.0541C29.1362 12.7528 29.0907 12.3934 29.0907 11.9723C29.0907 11.5512 29.1476 11.0829 29.2614 10.6001C29.3753 10.1173 29.527 9.64534 29.7243 9.16979C29.9178 8.69787 30.1569 8.24773 30.4415 7.823C30.726 7.39827 31.0372 7.02073 31.3749 6.69765C31.7163 6.36367 32.0806 6.1023 32.4676 5.90627C32.8546 5.71387 33.2606 5.61586 33.6818 5.61586C34.046 5.61586 34.3458 5.68846 34.581 5.8373C34.8239 5.97525 35.0098 6.16401 35.1388 6.39635C35.2754 6.62142 35.374 6.87553 35.431 7.16231C35.4879 7.44909 35.5144 7.73587 35.5144 8.02266C35.5144 8.65794 35.4423 9.25691 35.2944 9.82322C35.1578 10.3823 34.9718 10.8941 34.7366 11.3697C34.5014 11.8343 34.2282 12.2518 33.9094 12.6257H33.9056ZM38.2919 13.3554C37.8859 13.6567 37.4419 13.8999 36.9563 14.0887C36.4782 14.2738 35.9697 14.3682 35.4272 14.3682C35.3133 14.3682 35.1995 14.3609 35.0857 14.3464C34.9718 14.3391 34.858 14.3282 34.7442 14.3101C34.9643 13.2428 35.1767 12.201 35.3892 11.1845C35.4689 10.7598 35.5562 10.3169 35.6434 9.85952C35.7307 9.39486 35.818 8.93746 35.8977 8.48732C35.9773 8.03718 36.057 7.60882 36.1291 7.19861C36.2088 6.7884 36.2733 6.41813 36.3226 6.08415C36.6717 6.02244 37.0246 5.96436 37.3774 5.9099C37.7341 5.85545 38.0984 5.83004 38.4702 5.83004C38.9065 5.83004 39.2746 5.89538 39.5743 6.02607C39.8817 6.15675 40.1283 6.33826 40.3142 6.57059C40.5077 6.80292 40.6519 7.07518 40.7392 7.38375C40.8264 7.69231 40.872 8.02266 40.872 8.37115C40.872 8.7741 40.8113 9.20246 40.6899 9.65986C40.5684 10.11 40.3977 10.5565 40.1814 11.0066C39.9613 11.4495 39.692 11.8743 39.3694 12.2845C39.0545 12.6874 38.6941 13.0432 38.2881 13.3517L38.2919 13.3554ZM45.4972 6.63231C45.4745 6.99532 45.4479 7.39464 45.4251 7.83026C45.4024 8.26225 45.3758 8.71602 45.353 9.18794C45.3303 9.65986 45.3037 10.1245 45.281 10.5819C45.2392 11.6492 45.1975 12.7854 45.1482 13.987C44.9053 14.0269 44.6625 14.056 44.4196 14.0814C44.2185 14.1141 43.9947 14.1467 43.7519 14.1867C43.509 14.2266 43.2889 14.2593 43.0954 14.2919C43.1296 14.0378 43.1599 13.7837 43.1941 13.5369C43.2169 13.3191 43.2396 13.1049 43.2548 12.8871C43.2776 12.6693 43.3003 12.4841 43.3155 12.328H42.2607L41.775 14.0015C41.5967 14.0233 41.388 14.0524 41.1452 14.0814C40.9023 14.1032 40.6747 14.1286 40.466 14.1504C40.208 14.183 39.9538 14.2121 39.6995 14.2448C40.0221 13.2138 40.3446 12.201 40.6595 11.2027C40.7885 10.7852 40.9213 10.346 41.0617 9.88856C41.2059 9.43116 41.3501 8.97739 41.4867 8.53088C41.6308 8.07348 41.7712 7.63786 41.9002 7.21676C42.0292 6.79929 42.1431 6.41449 42.2417 6.066C42.7919 6.02607 43.3497 5.98251 43.9188 5.92805C44.4917 5.8736 45.0533 5.801 45.5959 5.70661C45.5731 5.95346 45.5428 6.26566 45.5124 6.63594L45.4972 6.63231Z" fill="#3CC42E"/>
<path d="M27.4591 7.14059C27.3719 7.65245 27.2808 8.13526 27.1935 8.59266C27.1063 9.05006 27.0076 9.5365 26.9014 10.0556C27.0304 10.0229 27.1632 9.95397 27.3036 9.84506C27.4477 9.7289 27.5843 9.58006 27.7058 9.40218C27.8272 9.21705 27.9258 9.00287 27.9979 8.76328C28.07 8.52368 28.108 8.2732 28.108 8.0082C28.108 7.72142 28.0397 7.50361 27.9031 7.3584C27.7741 7.20957 27.6261 7.13696 27.4667 7.13696L27.4591 7.14059Z" fill="#3CC42E"/>
<path d="M43.3011 8.24405L42.5498 11.1591H42.7205C42.8078 11.1518 42.8989 11.1482 42.9861 11.1482C43.0848 11.1409 43.1721 11.1373 43.2517 11.1373C43.3314 11.13 43.3883 11.1228 43.4225 11.1155C43.4225 11.0683 43.4263 10.9921 43.4339 10.8832C43.4491 10.767 43.4604 10.64 43.4718 10.4984C43.487 10.3495 43.506 10.1934 43.5211 10.0228C43.5363 9.85221 43.5553 9.68522 43.5705 9.52186C43.6046 9.12618 43.6426 8.70145 43.6919 8.24405L43.764 7.23486L43.5819 7.24575L43.3011 8.24405Z" fill="#3CC42E"/>
<path d="M38.0111 7.46729C37.9238 7.92469 37.829 8.36031 37.7303 8.7814C37.6317 9.19887 37.5368 9.61997 37.4382 10.0483C37.3395 10.4731 37.2447 10.9196 37.146 11.3842C37.0474 11.8489 36.9563 12.3571 36.8652 12.9053C37.0587 12.7818 37.2447 12.6149 37.423 12.4043C37.6089 12.1865 37.7835 11.9396 37.9466 11.6601C38.1098 11.3806 38.2539 11.0866 38.383 10.778C38.5195 10.4694 38.6372 10.1645 38.7358 9.87045C38.8345 9.57641 38.9066 9.30052 38.9559 9.04641C39.0128 8.79229 39.0394 8.57085 39.0394 8.38572C39.0394 8.09893 38.9559 7.87386 38.7851 7.71051C38.622 7.54715 38.364 7.46729 38.0073 7.46729H38.0111Z" fill="#3CC42E"/>
<path d="M23.8396 19.28C21.9501 19.28 20.125 20.8519 19.7683 22.7904C19.4079 24.7289 20.6486 26.3008 22.5382 26.3008C24.4277 26.3008 26.2528 24.7289 26.6095 22.7904C26.9699 20.8519 25.7292 19.28 23.8396 19.28Z" fill="#3CC42E"/>
<path d="M41.7146 19.28C39.8251 19.28 38 20.8519 37.6433 22.7904C37.2829 24.7289 38.5236 26.3008 40.4132 26.3008C42.3027 26.3008 44.1278 24.7289 44.4845 22.7904C44.8449 20.8519 43.6042 19.28 41.7146 19.28Z" fill="#3CC42E"/>
</g>
<defs>
<clipPath id="clip0_192_11987">
<rect width="56.96" height="26.3005" fill="white" transform="translate(0.800781)"/>
</clipPath>
</defs>
</svg>
