<svg width="17" height="16" viewBox="0 0 17 16" fill="none" xmlns="http://www.w3.org/2000/svg">
<path d="M7.87242 2.18182V0.727273C7.87242 0.327273 8.20436 0 8.61005 0C9.01575 0 9.34769 0.327273 9.34769 0.727273V2.18182C9.34769 2.58182 9.01575 2.90909 8.61005 2.90909C8.20436 2.90909 7.87242 2.58182 7.87242 2.18182ZM13.3014 4.4L14.3415 3.36727C14.6291 3.08364 14.6291 2.62545 14.3415 2.34182C14.0538 2.05818 13.5891 2.05818 13.3014 2.34182L12.2613 3.37455C11.9737 3.65818 11.9737 4.11636 12.2613 4.4C12.549 4.68364 13.0137 4.68364 13.3014 4.4ZM15.9864 7.27273H14.5111C14.1054 7.27273 13.7735 7.6 13.7735 8C13.7735 8.4 14.1054 8.72727 14.5111 8.72727H15.9864C16.3921 8.72727 16.724 8.4 16.724 8C16.724 7.6 16.3921 7.27273 15.9864 7.27273ZM8.61005 13.0909C8.20436 13.0909 7.87242 13.4182 7.87242 13.8182V15.2727C7.87242 15.6727 8.20436 16 8.61005 16C9.01575 16 9.34769 15.6727 9.34769 15.2727V13.8182C9.34769 13.4182 9.01575 13.0909 8.61005 13.0909ZM3.91871 4.4L2.87127 3.37455C2.58359 3.09091 2.58359 2.62545 2.87127 2.34909C3.15895 2.07273 3.63103 2.06545 3.91133 2.34909L4.9514 3.37455C5.23907 3.65818 5.23907 4.12364 4.9514 4.4C4.66372 4.67636 4.19901 4.68364 3.91871 4.4ZM12.2613 11.6C11.9737 11.8836 11.9737 12.3491 12.2613 12.6255L13.3014 13.6509C13.5891 13.9345 14.0612 13.9345 14.3415 13.6509C14.6291 13.3673 14.6291 12.9018 14.3415 12.6255L13.3014 11.6C13.0211 11.3164 12.549 11.3164 12.2613 11.6ZM1.23373 8.72727H2.70899C3.11469 8.72727 3.44662 8.4 3.44662 8C3.44662 7.6 3.11469 7.27273 2.70899 7.27273H1.23373C0.828028 7.27273 0.496094 7.6 0.496094 8C0.496094 8.4 0.828028 8.72727 1.23373 8.72727ZM3.91871 13.6582L4.95877 12.6327C5.24645 12.3491 5.24645 11.8836 4.95877 11.6073C4.6711 11.3309 4.19901 11.3236 3.91871 11.6073L2.87865 12.6327C2.59097 12.9164 2.59097 13.3818 2.87865 13.6582C3.15895 13.9418 3.63103 13.9418 3.91871 13.6582ZM8.61005 3.63636C6.16849 3.63636 4.18426 5.59273 4.18426 8C4.18426 10.4073 6.16849 12.3636 8.61005 12.3636C11.0516 12.3636 13.0359 10.4073 13.0359 8C13.0359 5.59273 11.0516 3.63636 8.61005 3.63636Z" fill="#FFC134"/>
</svg>
